<?xml version="1.0" encoding="utf-8"?>
<!-- Generator: Adobe Illustrator 23.0.1, SVG Export Plug-In . SVG Version: 6.00 Build 0)  -->
<svg version="1.1" id="Layer_1" xmlns="http://www.w3.org/2000/svg" xmlns:xlink="http://www.w3.org/1999/xlink" x="0px" y="0px"
	 viewBox="0 0 1000 1000" style="enable-background:new 0 0 1000 1000;" xml:space="preserve">
<style type="text/css">
	.st0{fill:#894D2F;}
	.st1{opacity:0.2;fill:#FFFFFF;enable-background:new    ;}
	.st2{opacity:0.3;fill:#FFFFFF;enable-background:new    ;}
	.st3{opacity:0.2;fill:#151310;enable-background:new    ;}
	.st4{fill:#82B6E2;}
	.st5{fill:#FBC311;}
	.st6{fill:#242D5C;}
</style>
<g transform="matrix(.60063 0 0 .60063 28.887355 8.85782)">
	<path class="st0" d="M-46.7,528.9h1662.1v853.5H-46.7V528.9z"/>
	<g>
		<path class="st1" d="M1013.8,1287.8l35.3,94.7l36.9-94.7h439.6V808.1h89.8v574.4H-46.7l91.4-94.7h438l35.3,94.7l36.9-94.7
			L1013.8,1287.8z"/>
		<path class="st2" d="M1013.8,1287.8V838.6h35.3v543.9L1013.8,1287.8z M482.7,1287.8V838.6H518v543.9L482.7,1287.8z"/>
	</g>
	<path class="st3" d="M1049.1,1382.4V838.6h36.9v449.2L1049.1,1382.4z M518,1382.4V838.6h36.9v449.2L518,1382.4z M-46.7,1382.4V792
		h91.4v495.7L-46.7,1382.4z"/>
	<path class="st4" d="M1161.4,1093.7l-231,41.7l-123.5-78.6l-86.6,59.4l-205.4-75.4l-120.3,33.7l-190.9,56.2l-160.4-36.9l-89.8-70.6
		V253h1662.1v776.5l-89.8,64.2l-152.4-28.9l-150.8,99.5L1161.4,1093.7z"/>
	<path class="st5" d="M632,567.4"/>
	<g>
		<path class="st6" d="M1262.5,734.3c25.7,4.8,78.6-65.8,96.3-85c19.3-20.9,32.1-11.2,20.9,11.2c-9.6,22.5-30.5,59.4-17.6,65.8
			c27.3,11.2,54.5-30.5,64.2-48.1c30.5-56.2,30.5,3.2,25.7,32.1c-12.8,64.2-11.2,227.8-266.3,208.6c-41.7-3.2-110.7-46.5-75.4-88.2
			c35.3-43.3,163.6-56.2,205.4-20.9c12.8,11.2,8,28.9-11.2,19.3c-14.4-8-38.5-17.6-80.2-11.2c-19.3,3.2-51.3,24.1-25.7,43.3
			c25.7,19.3,125.1,9.6,155.6-9.6c59.4-35.3,51.3-99.5,56.2-107.5c-11.2,12.8-27.3,30.5-65.8,25.7c-27.3-3.2-22.5-28.9-20.9-43.3
			c-24.1,24.1-43.3,33.7-67.4,33.7c-12.8,0-27.3-3.2-38.5-14.4c-70.6,32.1-112.3,0-88.2-67.4c14.3-39.4,32-77.5,52.9-113.9
			c28.9-48.1,65.8-24.1,49.7,0c-19.3,30.5-56.2,75.4-72.2,115.5c-24.1,61,28.9,59.4,48.1,51.3c0-1.6-1.6-3.2-1.6-4.8
			c-19.3-52.9,40.1-130,97.9-86.6c16,24.1-17.6,62.6-56.2,88.2c-1.6,1.6-3.2,1.6-4.8,3.2C1249.6,731.1,1256,732.7,1262.5,734.3z
			 M1233.6,715c25.7-17.6,46.5-41.7,35.3-49.7C1251.2,650.9,1222.4,689.4,1233.6,715z M221.2,822.5
			c41.7,27.3,105.9-102.7,72.2-120.3C242.1,673.3,173.1,784,169.9,837c-3.2,43.3,30.5,81.8,80.2,62.6c61-24.1,91.4-62.6,115.5-105.9
			c16-25.7,77-155.6,54.5-173.3c-19.3-14.4-54.5,14.4-46.5,83.4c3.2,27.3,16,70.6,22.5,115.5c9.6-24.1,30.5-59.4,52.9-67.4
			c70.6-22.5-1.6,107.5,28.9,96.3c20.9-8,27.3-131.6,88.2-142.8c54.5-9.6,51.3,97.9,1.6,130c-46.5,30.5-64.2-22.5-52.9-67.4
			c4.8-19.3,35.3-35.3,24.1-16c-12.8,22.5-3.2,57.8,17.6,49.7c35.3-14.4,43.3-93.1,6.4-72.2c-40.1,20.9-35.3,97.9-67.4,131.6
			c-11.2,11.2-30.5,14.4-35.3,9.6c-17.6-14.4,17.6-96.3-8-88.2c-20.9,6.4-30.5,59.4-40.1,85c-1.6,4.8-3.2,30.5-3.2,30.5l-25.7,11.2
			c-1.6-54.5-11.2-110.7-25.7-186.1c-14.4-78.6,27.3-154,77-160.4c75.4-11.2,48.1,64.2,20.9,112.3c-48.1,83.4-101.1,218.2-168.5,284
			c-93.1,88.2-202.1,8-179.7-105.9c14.4-70.6,88.2-205.4,182.9-179.7c78.6,22.5,40.1,110.7,3.2,152.4
			c-19.3,20.9-56.2,36.9-80.2,14.4C203.6,832.2,208.4,814.5,221.2,822.5z M694.5,716.6c0-16-8-19.3-20.9-14.4
			c-17.6,4.8-32.1,28.9-28.9,51.3c1.6,12.8,14.4,24.1,36.9,17.6c41.7-11.2,56.2-85,89.8-109.1c65.8-46.5,96.3,62.6,43.3,112.3
			c-33.7,32.1-81.8,14.4-80.2-40.1c1.6-38.5,27.3-81.8,69-85c41.7-4.8,43.3,35.3,80.2,38.5c38.5,3.2,62.6-78.6,57.8-113.9
			c-4.8-38.5-28.9-33.7-51.3,19.3c-14.4,33.7-20.9,139.6,20.9,146c35.3,4.8,69-120.3,138-115.5c44.9,3.2,48.1,94.7,11.2,120.3
			c-17.6,17.6-40.1,17.6-56.2,16c-43.3-3.2-46.5-67.4-14.4-104.3c17.6-19.3,35.3-12.8,16,4.8c-22.5,20.9-14.4,52.9,4.8,56.2
			c54.5,8,61-78.6,20.9-70.6c-14.4,3.2-33.7,17.6-57.8,56.2c-14.4,22.5-40.1,65.8-59.4,70.6c-19.3,4.8-35.3-1.6-46.5-36.9
			c-16-49.7-8-109.1,4.8-155.6c35.3-126.7,138-83.4,115.5,0c-9.6,38.5-43.3,104.3-80.2,123.5c-43.3,20.9-49.7-19.3-85-30.5
			c-51.3-17.6-94.7,70.6-35.3,69c41.7-6.4,54.5-85,6.4-65.8c-46.5,17.6-52.9,85-86.6,120.3c-46.5,48.1-97.9,9.6-85-59.4
			c3.2-20.9,28.9-52.9,54.5-57.8c27.3-4.8,43.3,12.8,36.9,40.1C707.4,727.9,694.5,729.5,694.5,716.6z"/>
		<path class="st6" d="M1108.4,650.9c-22.5,22.5-25.7,61-4.8,77c8,8,30.5,6.4,46.5-3.2l6.4,14.4c-54.5,43.3-101.1,0-86.6-64.2
			c1.6-6.4,11.2-25.7,20.9-36.9C1105.2,622,1122.9,636.4,1108.4,650.9z M1129.3,594.7c-25.7-12.8-28.9,6.4-14.4,14.4
			c65.8,38.5,117.1,19.3,131.6,4.8c14.4-12.8,3.2-20.9-9.6-17.6C1196.7,609.1,1161.4,610.7,1129.3,594.7z"/>
	</g>
	<path class="st1" d="M1615.4,253h-89.8v840.7l89.8-64.2V253z"/>
	<path class="st3" d="M43.2,1093.7V253h-89.8v770.1L43.2,1093.7z"/>
</g>
</svg>
